<svg id="icon-codepen-logo" width="24" height="24" viewBox="0 0 24 24">
    <path d="M2.893 15.656l8.076 5.384v-4.808l-4.473-2.986-3.603 2.41zm-.83-1.928L4.646 12l-2.585-1.728v3.456zM13.03 21.04l8.076-5.384-3.603-2.41-4.473 2.986v4.808zM12 14.438L15.643 12 12 9.562 8.357 12 12 14.438zm-5.504-3.684l4.473-2.986V2.96L2.893 8.344l3.603 2.41zM19.353 12l2.584 1.728v-3.456L19.354 12zm-1.849-1.246l3.603-2.41-8.076-5.384v4.808l4.473 2.986zM24 8.344v7.312a.979.979 0 0 1-.455.857l-10.97 7.313A1.079 1.079 0 0 1 12 24c-.196 0-.388-.058-.576-.174L.455 16.513A.979.979 0 0 1 0 15.656V8.344c0-.366.152-.652.455-.857L11.425.174C11.611.058 11.803 0 12 0c.196 0 .388.058.576.174l10.969 7.313a.979.979 0 0 1 .455.857z" fill-rule="evenodd"/>
</svg>
