<svg id="icon-logo-react" width="90" height="80" viewBox="0 0 90 80">
  <path d="M73.304 26.463c9.57 3.289 15.755 8.442 15.755 13.77 0 5.555-6.609 10.988-16.768 14.348a52.05 52.05 0 0 1-1.648.514c.2.803.379 1.592.532 2.365 2.005 10.113.46 18.426-4.292 21.173-4.602 2.66-12.04.047-19.572-6.423a58.14 58.14 0 0 1-2.395-2.182 50.168 50.168 0 0 1-1.85 1.702c-7.774 6.785-15.759 9.6-20.516 6.861-4.606-2.652-6.054-10.39-4.2-20.136.202-1.059.434-2.112.696-3.158a50.431 50.431 0 0 1-2.397-.748C6.877 51.215.446 45.715.446 40.232c0-5.308 5.991-10.426 15.373-13.692a58.847 58.847 0 0 1 3.28-1.03 59.004 59.004 0 0 1-.655-2.93c-1.944-9.917-.577-17.843 4.042-20.512 4.816-2.784 12.837.205 20.84 7.3.497.441.987.893 1.468 1.353A59.236 59.236 0 0 1 47 8.7c7.636-6.634 15.196-9.41 19.818-6.748 4.822 2.775 6.234 11.206 4.074 21.67-.135.651-.282 1.299-.44 1.943.958.275 1.91.575 2.852.898zm-2.203 24.53c8.771-2.9 14.173-7.34 14.173-10.76 0-3.211-5.002-7.378-13.202-10.196a55.799 55.799 0 0 0-2.634-.83c-1.09 3.521-2.545 7.242-4.313 11.044 1.852 3.894 3.366 7.663 4.487 11.208a49.47 49.47 0 0 0 1.489-.465zm-3.64 7.2c-.138-.697-.299-1.411-.48-2.14-3.67.848-7.717 1.468-12.001 1.848-2.435 3.52-4.93 6.69-7.428 9.416a54.24 54.24 0 0 0 2.229 2.028c6.44 5.533 12.412 7.631 15.205 6.017 1.312-.758 2.373-2.652 2.901-5.492.588-3.16.461-7.204-.426-11.676zm-36.805 16.89c3.036-1.07 6.482-3.199 9.92-6.2a46.586 46.586 0 0 0 1.688-1.552c-2.587-2.772-5.155-5.938-7.606-9.382-4.295-.348-8.313-.925-11.942-1.726a54.154 54.154 0 0 0-.647 2.937c-1.585 8.334-.423 14.548 2.372 16.157 1.313.756 3.486.728 6.215-.234zm-12.782-24.11c.723.246 1.453.473 2.187.683 1.12-3.643 2.595-7.468 4.373-11.332-1.755-3.807-3.21-7.572-4.319-11.173-1.026.29-2.043.61-3.05.958-8.023 2.793-12.834 6.902-12.834 10.123 0 1.514 1.11 3.38 3.307 5.26 2.446 2.09 6.015 4.006 10.336 5.48zm4.285-29.119c.18.914.383 1.822.609 2.726 3.667-.83 7.657-1.45 11.824-1.835 2.43-3.424 4.975-6.566 7.549-9.326a49.459 49.459 0 0 0-1.33-1.226C33.903 6.068 27.348 3.625 24.383 5.34c-2.783 1.608-3.889 8.018-2.223 16.515zm38.224 9.423c.88 1.518 1.73 3.053 2.549 4.604a80.535 80.535 0 0 0 2.836-7.618 83.358 83.358 0 0 0-8.08-1.41c.93 1.455 1.828 2.93 2.695 4.424zM44.795 16.12a83.378 83.378 0 0 0-5.259 6.282c3.49-.163 6.984-.162 10.474.002a80.855 80.855 0 0 0-5.215-6.284zM29.107 31.303a111.08 111.08 0 0 1 2.717-4.457c-2.81.35-5.506.812-8.034 1.377a83.32 83.32 0 0 0 2.816 7.655c.798-1.544 1.632-3.07 2.501-4.575zm2.797 22.585a111.66 111.66 0 0 1-5.294-9.121 84.656 84.656 0 0 0-2.872 7.81c2.527.55 5.264.988 8.166 1.311zM44.9 64.612c1.734-1.906 3.476-4.047 5.202-6.389-1.758.079-3.543.119-5.35.119-1.758 0-3.488-.034-5.184-.1a84.98 84.98 0 0 0 5.332 6.37zm18.068-19.98a119.997 119.997 0 0 1-2.57 4.687 132.115 132.115 0 0 1-2.72 4.501 80.46 80.46 0 0 0 8.266-1.406c-.793-2.48-1.792-5.088-2.976-7.783zm-5.85 2.799a113.798 113.798 0 0 0 3.808-7.162 123.823 123.823 0 0 0-3.82-7.098 113.792 113.792 0 0 0-4.27-6.806 107.427 107.427 0 0 0-16.153-.002 106.179 106.179 0 0 0-4.296 6.829v-.001a107.167 107.167 0 0 0-3.769 7.132A107.176 107.176 0 0 0 36.73 54.31c2.584.167 5.266.253 8.023.253 2.77 0 5.486-.097 8.115-.284a123.879 123.879 0 0 0 4.251-6.848zm7.81-42.205c-2.786-1.604-8.9.64-15.443 6.325a55.624 55.624 0 0 0-2.038 1.866c2.533 2.724 5.056 5.872 7.491 9.333 4.18.392 8.172 1.022 11.848 1.869.144-.584.277-1.17.399-1.759 1.864-9.035.71-15.925-2.257-17.634zM44.752 32.332c4.37 0 7.913 3.537 7.913 7.9s-3.542 7.9-7.913 7.9c-4.37 0-7.912-3.537-7.912-7.9s3.542-7.9 7.912-7.9z"/>
</svg>
