<svg id="icon-mouse" width="148" height="165" viewBox="0 0 148 165">
    <g stroke="#37342E" stroke-width="2" fill="none" fill-rule="evenodd">
        <path d="M78.277 135.78l1.91-7.758c1.514.7 3.43 1.24 5.495.688 2.788-.747 4.112-3.038 3.34-5.929L83 100.267l8.881-2.375 6.05 22.618c2.277 8.52-1.837 13.825-9.376 15.841-3.459.925-7.088 1.01-10.278-.57zm25.832-7.683l1.84-6.357c2.302 1.155 6.72 1.745 9.663.958 2.375-.635 3.148-1.672 2.845-2.809-.87-3.253-14.523 3.83-17.203-6.189-1.174-4.389 1.575-9.218 8.493-11.069 4.183-1.118 8.106-.728 11.314.516l-1.637 6.081c-1.885-1.045-5.07-1.577-8.065-.776-1.858.497-2.942 1.617-2.666 2.65.773 2.892 14.523-3.828 17.258 6.396 1.27 4.751-1.973 9.38-9.15 11.3-4.442 1.187-9.438.92-12.692-.7z"/>
        <path d="M129.93 83.864l13.324 49.825-112.062 29.968L1.224 51.595l80.054-21.408"/>
        <path d="M132.345 82.89c-12.183 5.739-26.846.466-32.585-11.717L83.15 35.906C77.41 23.723 82.684 9.06 94.868 3.322c12.184-5.74 26.847-.465 32.585 11.718l16.61 35.266c5.739 12.184.465 26.847-11.718 32.585z"/>
        <path d="M106.126 22.095a2.187 2.187 0 1 1-3.957 1.862 2.187 2.187 0 0 1 3.957-1.862z"/>
    </g>
</svg>
