<svg id="icon-pens" width="41" height="112" viewBox="0 0 41 112">
    <g stroke="#37342E" stroke-width="2" fill="none" fill-rule="evenodd">
        <path d="M1.326 102.4L15.46 12.755l5.433.857-14.134 89.643z"/>
        <path stroke-linecap="round" stroke-linejoin="round" d="M20.35 1l-4.89 11.757 5.433.856z"/>
        <path d="M1.326 102.4l-.304 1.926a1.799 1.799 0 0 0 1.497 2.057l1.878.297a1.8 1.8 0 0 0 2.058-1.498l.304-1.926-5.433-.857zm12.186 3.335L34.07 17.344l5.357 1.246-20.558 88.391z"/>
        <path stroke-linecap="round" stroke-linejoin="round" d="M39.796 5.97l-5.725 11.375 5.357 1.246z"/>
        <path d="M13.512 105.735l-.442 1.9a1.8 1.8 0 0 0 1.345 2.16l1.852.431a1.8 1.8 0 0 0 2.16-1.345l.442-1.9-5.357-1.246z"/>
    </g>
</svg>
