<svg width="21" height="20"><path d="M21 10.25c0 2.234-.668 4.243-2.003 6.027-1.335 1.784-3.06 3.018-5.175 3.703-.246.045-.426.014-.54-.093a.526.526 0 0 1-.17-.4V16.67c0-.863-.238-1.495-.712-1.895a9.57 9.57 0 0 0 1.402-.24c.414-.107.843-.28 1.285-.52a3.82 3.82 0 0 0 1.107-.888c.297-.352.538-.819.725-1.402.187-.583.28-1.252.28-2.008 0-1.077-.36-1.994-1.08-2.75.337-.81.3-1.717-.11-2.723-.254-.08-.624-.03-1.107.147a7.443 7.443 0 0 0-1.257.587l-.52.32a9.925 9.925 0 0 0-2.625-.346c-.902 0-1.777.115-2.625.347-.146-.098-.34-.218-.581-.36-.242-.143-.622-.314-1.142-.514-.52-.2-.911-.26-1.175-.18-.401 1.005-.433 1.912-.096 2.722-.72.756-1.08 1.673-1.08 2.75 0 .756.093 1.423.28 2.002.187.578.426 1.045.718 1.401a3.66 3.66 0 0 0 1.1.894c.442.24.87.414 1.286.52a9.57 9.57 0 0 0 1.4.241c-.364.32-.587.779-.669 1.375a2.758 2.758 0 0 1-.615.2 3.96 3.96 0 0 1-.78.067c-.3 0-.599-.096-.895-.287a2.382 2.382 0 0 1-.759-.834 2.175 2.175 0 0 0-.663-.694c-.269-.178-.494-.285-.677-.32l-.273-.04c-.192 0-.324.02-.397.06-.073.04-.095.09-.068.153a.733.733 0 0 0 .123.187.991.991 0 0 0 .178.16l.096.066c.2.09.398.259.594.508.196.249.34.476.43.68l.138.307c.118.338.319.612.601.821.283.21.588.343.916.4.328.058.645.09.95.094.306.004.559-.011.76-.047l.314-.053c0 .338.002.734.007 1.188l.006.72c0 .16-.059.294-.177.4-.119.108-.301.139-.547.094-2.115-.685-3.84-1.92-5.175-3.703C.668 14.493 0 12.484 0 10.25c0-1.86.47-3.574 1.408-5.145a10.332 10.332 0 0 1 3.821-3.73C6.84.458 8.595 0 10.5 0c1.905 0 3.662.458 5.27 1.375a10.332 10.332 0 0 1 3.822 3.73A9.845 9.845 0 0 1 21 10.25z" fill-rule="evenodd"/></svg>