<svg id="icon-logo" width="45" height="32" viewBox="0 0 45 32">
  <path d="M22.222 3.816c.839 1.205 2.433-.45 1.854-1.687-.58-1.242-3.226-.318-1.86 1.69l.006-.003zm15.06 27.004c2.46.643 2.432-2.586.578-2.36-1.853.226-1.865 2.034-.583 2.355l.004.005zm7.644-21.817c-.695-7.554-7.135-11.47-11-7.312-5.108 5.49-3.36 19.008-11.12 22.818-7.76 3.823-16.448-.787-16.448-7.76S11.802 6.515 13.54 5.953c1.737-.563 4.54-.69 5.096-1.575.555-.884.695-3.486-5.328-3.036-2.865.213-9.05 3.07-11.7 8.322-2.924 5.794-1.938 14.221 3.6 18.319 10.099 7.552 19.448 2.812 22.935-.9 3.475-3.71 5.212-9.11 8.803-8.435 3.59.683.703 5.182 2.193 5.865 1.501.678 6.497-7.959 5.794-15.511l-.007.001zm-7.86 6.902c-3.555 1.205.159-8.427 2.128-6.04 1.969 2.39-.054 5.323-2.123 6.046l-.005-.006z"/>
</svg>
