<svg id="icon-sketch" width="82" height="82" viewBox="0 0 82 82">
    <g stroke="#37342E" stroke-width="2" fill="none" fill-rule="evenodd">
        <path d="M34.251 42.363L10.013 28.32l2.217 52.055"/>
        <path d="M52.348 11.122L38.34 3.007 21.488 1.184 10.013 28.323l48.882 2.84"/>
        <path d="M45.301 23.287l-13.593-7.875 26.824 41.017M34.251 42.363l24.239 14.04-46.26 23.973"/>
        <path d="M58.896 31.162l21.14 20.554-3.714-18.767-17.426-1.787-.407 25.241 21.546-4.687-67.804 28.66L3.36 7.299l6.652 21.024 21.694-12.91-10.22-14.228L3.362 7.298l28.346 8.114"/>
        <path d="M52.348 11.122l14.009 8.115 9.965 13.711-17.833 23.456-26.781-40.991"/>
        <path d="M45.301 23.287l13.594 7.874L9.97 28.297"/>
    </g>
</svg>
