<?xml version="1.0" standalone="no"?>
<!DOCTYPE svg PUBLIC "-//W3C//DTD SVG 20010904//EN"
 "http://www.w3.org/TR/2001/REC-SVG-20010904/DTD/svg10.dtd">
<svg version="1.0" xmlns="http://www.w3.org/2000/svg"
 width="500.000000pt" height="500.000000pt" viewBox="0 0 500.000000 500.000000"
 preserveAspectRatio="xMidYMid meet">
<metadata>
Created by potrace 1.11, written by Peter Selinger 2001-2013
</metadata>
<g transform="translate(0.000000,500.000000) scale(0.100000,-0.100000)"
fill="#000000" stroke="none">
<path d="M3739 3931 c-204 -65 -362 -286 -479 -671 -32 -102 -83 -295 -101
-375 -4 -22 -11 -49 -14 -60 -3 -11 -11 -47 -19 -80 -82 -347 -185 -618 -301
-790 -59 -87 -183 -207 -263 -254 -120 -70 -285 -128 -417 -148 -63 -10 -307
-10 -357 0 -237 45 -424 138 -563 281 -119 123 -172 216 -216 381 -28 105 -21
324 15 460 72 274 250 510 501 661 50 30 144 69 187 78 13 2 55 11 93 20 39 8
82 17 95 19 161 31 225 68 237 140 32 202 -263 293 -662 203 -42 -9 -160 -57
-246 -100 -316 -159 -569 -406 -694 -679 -34 -76 -74 -186 -82 -226 -2 -14 -6
-28 -8 -32 -3 -4 -7 -24 -10 -45 -3 -22 -8 -45 -11 -53 -17 -51 -24 -306 -12
-436 29 -293 158 -580 353 -780 188 -194 606 -410 870 -450 17 -3 57 -9 90
-14 77 -12 290 -12 380 1 162 22 381 93 525 171 59 32 192 116 200 126 3 3 25
22 50 43 116 94 199 193 375 448 206 299 280 380 393 426 99 40 213 22 279
-46 46 -47 57 -107 48 -249 -12 -186 -8 -208 37 -232 50 -27 163 94 271 291
106 194 209 504 242 730 4 25 9 56 11 70 9 53 12 328 3 380 -5 30 -11 71 -14
90 -9 55 -24 109 -52 190 -82 232 -246 419 -436 497 -82 34 -216 40 -298 14z
m266 -891 c43 -41 78 -127 78 -194 1 -77 -5 -103 -39 -172 -34 -70 -117 -152
-188 -187 -59 -29 -95 -33 -128 -16 -73 39 -53 235 43 419 44 85 80 128 128
158 40 24 74 22 106 -8z"/>
<path d="M2483 3795 c-58 -25 -83 -92 -57 -153 42 -101 114 -113 175 -29 31
43 38 96 18 140 -20 44 -84 64 -136 42z"/>
<path d="M3845 1288 c-80 -28 -111 -102 -70 -165 44 -66 176 -67 219 -1 34 52
17 131 -33 161 -32 19 -71 21 -116 5z"/>
</g>
</svg>
